PathFileType	4	(X/Y/Z)	Patient4_TMGait_0pt4_02_right_22.trc.trc
DataRate	CameraRate	NumFrames	NumMarkers	Units	OrigDataRate	OrigDataStartFrame	OrigNumFrames
76.923076923077	76.923076923077	6	33	mm	76.923076923077	106	       141
Frame#	Time	Sacral			L.Shoulder			Chest			R.Shoulder			Neck			R.ASIS			L.ASIS			R.Thigh.Superior			R.Thigh.Lateral			R.Thigh.Inferior			R.Patella			L.Thigh.Superior			L.Thigh.Lateral			L.Thigh.Inferior			L.Patella			L.Shank.Superior			L.Shank.Lateral			L.Shank.Inferior			R.Shank.Superior			R.Shank.Lateral			R.Shank.Inferior			R.Heel			R.Midfoot.Superior			R.Midfoot.Lateral			R.Toe			L.Heel			L.Midfoot.Lateral			L.Midfoot.Superior			L.Toe			L.Elbow			L.Wrist			R.Elbow			R.Wrist			
		X1	Y1	Z1	X2	Y2	Z2	X3	Y3	Z3	X4	Y4	Z4	X5	Y5	Z5	X6	Y6	Z6	X7	Y7	Z7	X8	Y8	Z8	X9	Y9	Z9	X10	Y10	Z10	X11	Y11	Z11	X12	Y12	Z12	X13	Y13	Z13	X14	Y14	Z14	X15	Y15	Z15	X16	Y16	Z16	X17	Y17	Z17	X18	Y18	Z18	X19	Y19	Z19	X20	Y20	Z20	X21	Y21	Z21	X22	Y22	Z22	X23	Y23	Z23	X24	Y24	Z24	X25	Y25	Z25	X26	Y26	Z26	X27	Y27	Z27	X28	Y28	Z28	X29	Y29	Z29	X30	Y30	Z30	X31	Y31	Z31	X32	Y32	Z32	X33	Y33	Z33	

106	30.235000000000	913.350342179801	1010.723970087451	433.705086873948	1106.217270673823	1435.191079693994	241.435276509273	1197.756183710081	1372.924806602232	410.841753100439	1103.842508884108	1450.253878889458	577.405340817350	1081.979991250176	1502.073973077117	395.847305990048	1140.807934714602	957.444173415672	558.034057273721	1133.248826141659	965.672558877574	283.542229727294	1227.752146593481	789.398319202589	531.994636678831	1194.169437943791	669.142352824011	612.761493773620	1282.425571743850	629.452274886710	534.177039227325	1309.025157629240	524.915527342368	561.363303439219	1172.673809332882	750.163322631007	312.068276086991	1077.959522871454	637.997047437300	252.988335012558	1160.248985477938	557.511084158282	313.967759096539	1157.149300798929	489.074400110297	323.980226576826	1129.876015815466	418.045534733055	316.769919912228	1036.986189188238	304.856324283726	268.030036199072	1088.256200595438	193.400670448601	339.457375218889	1248.655162273426	440.937339034924	573.814729167629	1143.053708501725	378.779622297220	643.759040323923	1149.738486900685	267.222005702395	597.896311019528	967.156035713835	163.619738332049	585.784299180667	1145.318869359732	139.708483862657	612.123407345615	1041.865493648405	117.249735767688	654.744825065918	1234.104301849541	44.532403268832	634.129973184114	959.665022387156	39.198728657107	387.995140014053	1030.089477078104	35.498795325534	304.019128225305	1114.438264608396	96.357109967166	327.952145491644	1241.909553683169	43.940417364842	294.134455260441	1155.138611063736	1094.937795310489	103.510873515369	1360.551250884636	931.713478946761	126.841610495376	1020.752805806509	1116.424108905143	707.065112116370	1061.054492376144	857.612952221529	706.703505748605	
107	30.248000000000	912.399485749120	1011.096636924475	432.658738035829	1107.984965699003	1435.105252793825	241.472287820981	1197.894331048561	1372.648679622644	411.651023461611	1102.755567137943	1450.269343630631	577.392539216835	1082.373042326897	1502.065015257649	395.791166197031	1139.141987869059	957.528489554155	558.577517524125	1133.248573822479	965.580262020597	283.934884858724	1226.059094594729	789.855281028728	532.613191367991	1192.900988640085	669.754653028191	613.692209617133	1280.787712367602	629.967107946368	534.911120310916	1308.649570452961	527.374587161906	562.103782129745	1170.530753186682	749.456507968068	313.078637090979	1075.441323553882	637.945430922590	252.961581015543	1156.654608494695	556.906189732152	314.418353227763	1152.894813989473	488.590404551707	324.350036152905	1125.587774762827	417.750670450365	316.956661132237	1032.552833531844	304.782335976662	267.978942268154	1083.251466243684	193.210818693166	339.544159612290	1252.051819802511	442.112614068230	574.964386360094	1150.767230398125	374.598285946962	645.781777632449	1163.024071164071	263.565463183480	599.741898629176	986.418630461343	150.767819621475	588.772082180537	1165.618851385556	135.905208864565	614.453941553171	1063.690355793071	108.225848045158	657.357072666669	1258.944844638905	45.039843008321	635.668026528611	954.424502368149	39.164103909804	387.982192515396	1024.852644433125	35.464477673883	304.000002847768	1109.207276507478	96.316347861803	327.980928782881	1236.701495166637	43.882618063895	294.138515930737	1159.324087780590	1095.844678590071	102.809348572009	1370.053017208999	939.874462257899	127.413258054944	1012.867109026456	1118.438295307430	706.434136599811	1045.559925518973	858.574207297923	708.118301027684	
108	30.261000000000	911.516415896851	1011.377933486563	431.773388568303	1109.704593551453	1434.890684085287	241.703576163562	1198.080816749710	1372.244820260159	412.592300564175	1101.828993208679	1450.186726675273	577.554475599864	1082.823128975751	1501.943690504389	395.916346773140	1137.532697891450	957.395386184793	559.258801085571	1133.252289369364	965.419434217625	284.441293990748	1223.944479105041	789.640666926647	533.502019639978	1190.700283136154	669.808284664516	614.835987862384	1278.213672085380	629.697228724806	535.928171933652	1307.120903453686	529.250710671546	562.966705077497	1168.471613552544	748.734851982490	314.103766394456	1073.031610784077	637.852982678969	252.984396900252	1153.186363338662	556.284353513624	314.895441334017	1148.784428528679	488.085936796129	324.739496446082	1121.423688761488	417.414800575795	317.170801034174	1028.216301866463	304.695522634965	267.938329053342	1078.261425598312	192.977056776875	339.636009533993	1254.639869076171	442.990155014345	576.211442342285	1158.273454566046	370.043741477142	647.972668658347	1176.413019655122	259.929407868870	601.626783378475	1006.747670624886	137.689857065697	591.754422333241	1186.603895553345	132.491889568854	616.863115584160	1086.516963431362	99.315428231065	659.941369790440	1284.465299754450	46.341627587479	637.151311282924	949.195876610082	39.135899572263	387.960851561098	1019.620000729604	35.426543820943	303.980447084201	1103.979800017772	96.264575988360	328.015749691754	1231.497536377749	43.811711785673	294.144628482918	1163.238253283016	1096.583337550992	102.346124363713	1378.958013365063	948.005293980397	128.154259695903	1005.310797993672	1120.438713993489	705.879136064170	1031.188693292137	859.847617537513	709.337725789804	
109	30.274000000000	910.724747653467	1011.574843333712	431.069990714836	1111.347942160122	1434.572062524748	242.129951769646	1198.306949701512	1371.740592928550	413.659878286681	1101.067506248619	1450.027072488180	577.895248446668	1083.315259102869	1501.729684894995	396.224509261716	1136.008788330695	957.064819947853	560.071567403314	1133.264735734732	965.204813111714	285.059997005123	1221.417403150256	788.764435911189	534.652446764788	1187.598483732779	669.326729683193	616.194420800658	1274.741376767872	628.681549030774	537.203382793450	1304.487781413967	530.541386913714	563.919828244736	1166.527139828114	748.006884876836	315.127907961411	1070.724235769231	637.732204962552	253.070002652603	1149.835559643491	555.647020951742	315.405715477279	1144.810322401894	487.566156922072	325.158912690123	1117.374257984032	417.046113067439	317.419707029493	1023.962742904734	304.605805072576	267.914682477464	1073.288319865492	192.708578265491	339.737096554059	1256.409738727060	443.612743526243	577.526086039401	1165.471188816154	365.276184491864	650.246856181751	1189.715289503428	256.498706063252	603.483658587610	1027.901199687401	124.766350297498	594.574033626399	1207.956642999591	129.643121529110	619.238231355019	1110.012533370468	90.815474608058	662.364391740272	1310.239321312316	48.572286515008	638.529708036264	943.976326633923	39.117775476763	387.929529453178	1014.390502851140	35.387157310686	303.960606880522	1098.756448957337	96.203005199395	328.054813190061	1226.296160214581	43.726955688121	294.153029080138	1166.901450623475	1097.166745400661	102.145730601479	1387.240348778977	956.028499122815	129.063005975731	998.143220610142	1122.416065196057	705.418748966014	1018.004209952894	861.344344482911	710.371296379868	
110	30.287000000000	910.047165504924	1011.690463762298	430.572163740970	1112.887442968244	1434.176611567052	242.751332265144	1198.560950136297	1371.166112584189	414.848736933252	1100.466934057292	1449.810900024725	578.418164237956	1083.829007184688	1501.444018645621	396.717537188604	1134.599422631177	956.562275762666	561.011531373916	1133.299594823984	964.953695673289	285.792683745832	1218.511915429548	787.267386588056	536.049774426624	1183.686449185170	668.355686343839	617.762038754638	1270.463388632709	626.994876236498	538.698008891333	1300.858449516161	531.268167124838	564.932842715456	1164.720602004933	747.279997796021	316.148733704585	1068.508042753356	637.598252819277	253.231452396561	1146.582518789547	554.996998215238	315.958222957692	1140.951242414825	487.037791097201	325.618060788157	1113.418427415210	416.655331376713	317.709554108062	1019.769199266927	304.523787272095	267.914327141400	1068.334215001487	192.418674314346	339.850623751420	1257.378897986232	444.017558812941	578.881322718264	1172.224364122784	360.449661481853	652.500210084530	1202.688743198127	253.420221258808	605.243778665112	1049.500559873857	112.361032071533	597.059590237679	1229.253573465540	127.463418132635	621.454355754423	1133.709919476830	82.975109605216	664.487517907006	1335.738943574024	51.762842859279	639.766826084461	938.762411684247	39.111746630977	387.889203644057	1009.162875902218	35.348873504701	303.940662589352	1093.538196100791	96.134331139064	328.096107397607	1221.095790691729	43.630000354936	294.163765142177	1170.322883753261	1097.612109746741	102.229735140636	1394.877286145701	963.863033800536	130.134965575820	991.432982487677	1124.352183361614	705.076816001521	1006.063281200646	862.975948797299	711.230445515533	
111	30.300000000000	909.505258449225	1011.721744091152	430.304079886275	1114.295654964767	1433.730458524997	243.566620632908	1198.827272745665	1370.552040700467	416.155143541630	1100.012033061898	1449.555741887835	579.125843100482	1084.338170794895	1501.106129178182	397.397394047885	1133.334133406226	955.916113996000	562.076804511379	1133.378786642354	964.683503809505	286.644381492742	1215.293405539095	785.222673903616	537.671892186861	1179.117010877750	666.958110678127	619.519991652933	1265.530888020605	624.744094658071	540.360295805932	1296.401169274118	531.474549771832	565.979383974787	1163.066876463294	746.558516901614	317.176796514986	1066.368693460681	637.467156967447	253.481351635680	1143.398944244682	554.338108501362	316.563638243223	1137.174655477962	486.508519598072	326.125686065549	1109.525644552573	416.255256436318	318.045111263920	1015.605919980459	304.460060295397	267.943307398401	1063.400070872484	192.123325433077	339.978752998780	1257.592330491746	444.228344472645	580.252045862090	1178.366081232689	355.699621009031	654.614545082247	1215.042220213744	250.785465372799	606.838981680948	1071.026518218707	100.796143538809	599.036927951991	1249.971236939532	125.977291952114	623.389275295892	1157.010338350520	75.975641087103	666.176810592225	1360.343245385825	55.822769330198	640.841635575606	933.550677112279	39.118657688416	387.842793015517	1003.935812368444	35.314586372232	303.920778093199	1088.325995485957	96.062539127313	328.137470713707	1215.894608324912	43.524747371212	294.176630498520	1173.501299732265	1097.937683755233	102.614144041205	1401.850342517121	971.425093825051	131.362101373479	985.251464408283	1126.218516506948	704.881695897679	995.416205187174	864.654173319931	711.931105625797	
